
<svg width="445px" height="447px" viewBox="0 0 445 447" version="1.1" xmlns="http://www.w3.org/2000/svg" xmlns:xlink="http://www.w3.org/1999/xlink">
    <g id="Page-1" stroke="none" stroke-width="1" fill="none" fill-rule="evenodd">
        <g id="ufo" fill="#000000" fill-rule="nonzero">
            <path d="M38.08,401.38 C39.98,401.04 41.24,399.22 40.9,397.31 C40.55,395.41 38.73,394.15 36.83,394.49 C34.93,394.84 33.67,396.66 34.01,398.56 C34.32,400.25 35.79,401.44 37.45,401.44 C37.66,401.44 37.87,401.42 38.08,401.38 Z" id="Path"></path>
            <path d="M39.94,421.25 C38.14,420.55 36.11,421.43 35.4,423.23 C34.69,425.03 35.58,427.06 37.38,427.77 C37.8,427.93 38.23,428.01 38.66,428.01 C40.06,428.01 41.37,427.17 41.92,425.79 C42.62,423.99 41.74,421.96 39.94,421.25 Z" id="Path"></path>
            <path d="M55.75,426.51 C53.89,425.98 51.95,427.06 51.43,428.92 C50.9,430.78 51.98,432.71 53.84,433.24 C54.16,433.33 54.48,433.37 54.79,433.37 C56.32,433.37 57.72,432.37 58.16,430.83 C58.69,428.97 57.61,427.04 55.75,426.51 Z" id="Path"></path>
            <path d="M54.34,399.5 C54.41,399.5 54.48,399.5 54.56,399.5 C56.49,399.38 57.95,397.71 57.83,395.78 C57.71,393.85 56.05,392.39 54.12,392.51 C52.19,392.63 50.72,394.29 50.85,396.22 C50.96,398.08 52.5,399.5 54.34,399.5 Z" id="Path"></path>
            <path d="M25.64,413.95 C24.08,412.8 21.89,413.14 20.74,414.7 C19.6,416.26 19.94,418.45 21.5,419.59 C22.12,420.05 22.85,420.27 23.57,420.27 C24.64,420.27 25.71,419.77 26.39,418.84 C27.53,417.28 27.2,415.09 25.64,413.95 Z" id="Path"></path>
            <path d="M23.44,406.22 C25.03,405.13 25.43,402.95 24.34,401.35 C23.24,399.76 21.06,399.36 19.47,400.45 C17.88,401.55 17.47,403.73 18.57,405.32 C19.25,406.31 20.34,406.84 21.46,406.84 C22.14,406.84 22.83,406.64 23.44,406.22 Z" id="Path"></path>
            <path d="M188.52,435.63 C186.65,436.12 185.54,438.04 186.03,439.9 C186.44,441.48 187.86,442.51 189.41,442.51 C189.71,442.51 190.01,442.48 190.31,442.4 C192.18,441.9 193.29,439.99 192.8,438.12 C192.3,436.25 190.39,435.13 188.52,435.63 Z" id="Path"></path>
            <path d="M187.85,419.73 C189.18,419.73 190.44,418.98 191.04,417.7 C191.85,415.94 191.08,413.86 189.33,413.05 C187.57,412.24 185.49,413 184.68,414.76 C183.87,416.51 184.63,418.59 186.39,419.41 C186.86,419.63 187.36,419.73 187.85,419.73 Z" id="Path"></path>
            <path d="M170.91,413.55 C171.26,413.66 171.61,413.72 171.96,413.72 C173.45,413.72 174.83,412.76 175.3,411.27 C175.88,409.43 174.86,407.46 173.02,406.88 C171.18,406.29 169.21,407.32 168.63,409.16 C168.04,411 169.06,412.97 170.91,413.55 Z" id="Path"></path>
            <path d="M172.32,438.31 C170.4,438.49 168.99,440.2 169.17,442.13 C169.35,443.94 170.87,445.29 172.65,445.29 C172.77,445.29 172.88,445.29 172.99,445.27 C174.92,445.09 176.33,443.38 176.14,441.45 C175.95,439.53 174.24,438.12 172.32,438.31 Z" id="Path"></path>
            <path d="M88.52,392.58 C86.59,392.48 84.94,393.95 84.83,395.89 C84.72,397.81 86.2,399.47 88.13,399.57 C88.19,399.58 88.26,399.58 88.33,399.58 C90.17,399.58 91.71,398.14 91.82,396.27 C91.93,394.34 90.45,392.69 88.52,392.58 Z" id="Path"></path>
            <path d="M138.82,439.01 C136.88,438.93 135.26,440.44 135.19,442.37 C135.11,444.3 136.62,445.93 138.55,446 C138.6,446 138.64,446 138.69,446 C140.56,446 142.11,444.52 142.18,442.64 C142.25,440.71 140.75,439.08 138.82,439.01 Z" id="Path"></path>
            <path d="M122.64,395.97 C120.73,395.7 118.95,397.03 118.68,398.94 C118.41,400.86 119.75,402.63 121.66,402.9 C121.83,402.92 121.99,402.93 122.15,402.93 C123.87,402.93 125.37,401.67 125.62,399.92 C125.89,398.01 124.55,396.24 122.64,395.97 Z" id="Path"></path>
            <path d="M105.62,393.92 C103.69,393.73 101.98,395.13 101.79,397.06 C101.6,398.98 103,400.69 104.92,400.88 C105.04,400.9 105.16,400.9 105.27,400.9 C107.05,400.9 108.57,399.55 108.75,397.75 C108.94,395.82 107.54,394.11 105.62,393.92 Z" id="Path"></path>
            <path d="M139.58,398.72 C139.58,398.73 139.58,398.73 139.58,398.72 C137.67,398.37 135.85,399.63 135.49,401.53 C135.14,403.43 136.39,405.26 138.3,405.61 L138.29,405.61 C138.51,405.65 138.73,405.67 138.94,405.67 C140.59,405.67 142.06,404.49 142.38,402.81 C142.73,400.91 141.48,399.08 139.58,398.72 Z" id="Path"></path>
            <path d="M122.01,437.97 C120.09,437.81 118.39,439.24 118.23,441.17 C118.07,443.09 119.5,444.79 121.43,444.95 C121.53,444.95 121.63,444.96 121.72,444.96 C123.53,444.96 125.05,443.58 125.21,441.75 C125.37,439.83 123.94,438.13 122.01,437.97 Z" id="Path"></path>
            <path d="M88.57,433.77 C86.66,433.44 84.86,434.73 84.54,436.63 C84.21,438.54 85.5,440.35 87.41,440.67 C87.6,440.7 87.8,440.72 87.99,440.72 C89.67,440.72 91.15,439.51 91.44,437.8 C91.76,435.89 90.47,434.09 88.57,433.77 Z" id="Path"></path>
            <path d="M71.35,392.049952 C69.42,392.04 67.84,393.6 67.8299522,395.53 C67.82,397.46 69.38,399.04 71.32,399.05 L71.33,399.05 C73.26,399.05 74.82,397.49 74.8300478,395.56 C74.84,393.63 73.28,392.06 71.35,392.049952 Z" id="Path"></path>
            <path d="M72.04,430.57 C70.15,430.16 68.28,431.36 67.87,433.24 C67.46,435.13 68.65,437 70.54,437.41 C70.79,437.47 71.05,437.5 71.29,437.5 C72.9,437.5 74.35,436.38 74.71,434.74 C75.12,432.85 73.93,430.99 72.04,430.57 Z" id="Path"></path>
            <path d="M154.75,409.1 C155.02,409.17 155.3,409.2 155.57,409.2 C157.15,409.2 158.59,408.12 158.97,406.52 C159.42,404.64 158.27,402.74 156.39,402.29 C154.51,401.84 152.62,403 152.17,404.88 C151.71,406.76 152.87,408.65 154.75,409.1 Z" id="Path"></path>
            <path d="M155.62,439.2 C153.69,439.24 152.15,440.83 152.18,442.76 C152.21,444.69 153.81,446.23 155.74,446.2 C157.67,446.17 159.21,444.57 159.18,442.64 C159.15,440.71 157.56,439.17 155.62,439.2 Z" id="Path"></path>
            <path d="M105.25,436.21 C103.33,435.97 101.58,437.33 101.34,439.25 C101.1,441.17 102.46,442.92 104.38,443.16 C104.52,443.18 104.67,443.19 104.82,443.19 C106.55,443.19 108.06,441.89 108.29,440.12 C108.52,438.21 107.17,436.46 105.25,436.21 Z" id="Path"></path>
            <path d="M215.86,384.2 C216.18,384.29 216.5,384.33 216.82,384.33 C218.35,384.33 219.75,383.32 220.18,381.79 C220.71,379.93 219.63,377.99 217.77,377.46 C215.91,376.93 213.98,378.02 213.45,379.87 C212.92,381.73 214,383.67 215.86,384.2 Z" id="Path"></path>
            <path d="M235.38,318.91 C236.91,318.91 238.31,317.91 238.75,316.37 C239.28,314.51 238.2,312.57 236.34,312.05 C234.48,311.52 232.54,312.6 232.02,314.46 C231.49,316.32 232.57,318.25 234.43,318.78 C234.75,318.87 235.07,318.91 235.38,318.91 Z" id="Path"></path>
            <path d="M244.67,286.21 C246.19,286.21 247.59,285.2 248.03,283.66 C248.56,281.8 247.48,279.87 245.62,279.34 C243.76,278.81 241.82,279.89 241.3,281.75 C240.77,283.61 241.85,285.54 243.71,286.07 C244.03,286.16 244.35,286.21 244.67,286.21 Z" id="Path"></path>
            <path d="M240.02,302.56 C241.55,302.56 242.95,301.56 243.39,300.01 C243.92,298.16 242.84,296.22 240.98,295.69 C239.12,295.16 237.18,296.24 236.66,298.1 C236.13,299.96 237.21,301.9 239.07,302.43 C239.39,302.52 239.71,302.56 240.02,302.56 Z" id="Path"></path>
            <path d="M249.31,269.85 C250.83,269.85 252.24,268.85 252.67,267.31 C253.2,265.45 252.12,263.51 250.26,262.98 C248.4,262.46 246.47,263.53 245.94,265.4 C245.41,267.26 246.49,269.19 248.35,269.72 C248.67,269.81 248.99,269.85 249.31,269.85 Z" id="Path"></path>
            <path d="M263.23,220.79 C264.76,220.79 266.16,219.78 266.6,218.24 C267.12,216.38 266.04,214.45 264.18,213.92 C262.32,213.39 260.39,214.47 259.86,216.33 C259.33,218.19 260.41,220.13 262.27,220.66 C262.59,220.75 262.91,220.79 263.23,220.79 Z" id="Path"></path>
            <path d="M253.95,253.5 C255.47,253.5 256.88,252.49 257.31,250.95 C257.84,249.09 256.76,247.16 254.9,246.63 C253.04,246.1 251.11,247.18 250.58,249.04 C250.05,250.9 251.13,252.84 252.99,253.36 C253.31,253.45 253.63,253.5 253.95,253.5 Z" id="Path"></path>
            <path d="M258.59,237.14 C260.11,237.14 261.52,236.14 261.95,234.6 C262.48,232.74 261.4,230.8 259.54,230.27 C257.68,229.75 255.75,230.83 255.22,232.69 C254.69,234.55 255.77,236.48 257.63,237.01 C257.95,237.1 258.27,237.14 258.59,237.14 Z" id="Path"></path>
            <path d="M208.49,410.17 C206.63,409.64 204.7,410.72 204.17,412.58 C203.64,414.44 204.72,416.38 206.58,416.9 C206.9,417 207.22,417.04 207.54,417.04 C209.06,417.04 210.46,416.03 210.9,414.49 C211.43,412.63 210.35,410.7 208.49,410.17 Z" id="Path"></path>
            <path d="M204.99,424.64 C203.13,424.11 201.2,425.19 200.67,427.05 C200.14,428.91 201.22,430.85 203.08,431.37 C203.4,431.47 203.72,431.51 204.04,431.51 C205.56,431.51 206.96,430.5 207.4,428.96 C207.93,427.1 206.85,425.17 204.99,424.64 Z" id="Path"></path>
            <path d="M230.74,335.27 C232.27,335.27 233.67,334.26 234.11,332.72 C234.64,330.86 233.56,328.93 231.7,328.4 C229.84,327.87 227.9,328.95 227.37,330.81 C226.85,332.67 227.93,334.61 229.79,335.13 C230.11,335.22 230.43,335.27 230.74,335.27 Z" id="Path"></path>
            <path d="M222.73,347.17 C222.21,349.03 223.28,350.96 225.15,351.49 C225.46,351.58 225.79,351.62 226.1,351.62 C227.63,351.62 229.03,350.62 229.47,349.08 C229.99,347.22 228.92,345.28 227.05,344.76 C225.2,344.23 223.26,345.31 222.73,347.17 Z" id="Path"></path>
            <path d="M177.43,175.81 C177.56,176.01 177.7,176.19 177.86,176.35 C178.02,176.51 178.2,176.65 178.4,176.78 C178.58,176.91 178.79,177.02 179,177.1 C179.21,177.19 179.43,177.26 179.65,177.3 C179.88,177.35 180.11,177.37 180.34,177.37 C181.26,177.37 182.16,177 182.81,176.35 C183.46,175.69 183.84,174.79 183.84,173.87 C183.84,173.64 183.82,173.41 183.77,173.19 C183.72,172.97 183.66,172.75 183.57,172.53 C183.48,172.32 183.37,172.12 183.25,171.93 C183.12,171.74 182.97,171.56 182.81,171.4 C182,170.59 180.79,170.22 179.65,170.44 C179.43,170.49 179.21,170.55 179,170.64 C178.79,170.73 178.58,170.84 178.4,170.96 C178.2,171.09 178.02,171.24 177.86,171.4 C177.7,171.56 177.56,171.74 177.43,171.93 C177.3,172.12 177.19,172.32 177.11,172.53 C177.02,172.75 176.95,172.97 176.91,173.19 C176.86,173.41 176.84,173.64 176.84,173.87 C176.84,174.1 176.86,174.33 176.91,174.56 C176.95,174.78 177.02,175 177.11,175.21 C177.19,175.42 177.3,175.63 177.43,175.81 Z" id="Path"></path>
            <path d="M127.91,243.49 C126.81,245.08 127.21,247.26 128.8,248.36 C129.41,248.78 130.1,248.99 130.79,248.99 C131.9,248.99 132.99,248.46 133.67,247.48 C134.77,245.89 134.37,243.71 132.78,242.61 C131.19,241.51 129.01,241.9 127.91,243.49 Z" id="Path"></path>
            <path d="M43.59,371.51 C42,370.41 39.82,370.81 38.72,372.39 C37.62,373.98 38.02,376.17 39.61,377.27 C40.22,377.69 40.91,377.89 41.6,377.89 C42.71,377.89 43.8,377.36 44.48,376.38 C45.58,374.79 45.18,372.61 43.59,371.51 Z" id="Path"></path>
            <path d="M118,257.82 C116.9,259.41 117.3,261.59 118.89,262.69 C119.5,263.11 120.19,263.31 120.88,263.31 C121.99,263.31 123.08,262.78 123.76,261.8 C124.86,260.21 124.46,258.03 122.87,256.93 C121.28,255.83 119.1,256.23 118,257.82 Z" id="Path"></path>
            <path d="M112.96,271.25 C111.37,270.15 109.19,270.55 108.09,272.14 C106.99,273.73 107.39,275.91 108.98,277.01 C109.59,277.43 110.28,277.63 110.97,277.63 C112.08,277.63 113.17,277.1 113.85,276.12 C114.95,274.53 114.55,272.35 112.96,271.25 Z" id="Path"></path>
            <path d="M34.57,390.7 C35.67,389.11 35.27,386.93 33.68,385.83 C32.09,384.73 29.91,385.13 28.82,386.72 C27.71,388.31 28.11,390.49 29.7,391.59 C30.31,392.01 31,392.21 31.69,392.21 C32.8,392.21 33.89,391.68 34.57,390.7 Z" id="Path"></path>
            <path d="M54.39,362.06 C55.49,360.47 55.09,358.28 53.5,357.19 C51.91,356.09 49.73,356.48 48.63,358.07 C47.53,359.66 47.93,361.84 49.52,362.94 C50.13,363.36 50.82,363.56 51.51,363.56 C52.62,363.56 53.71,363.04 54.39,362.06 Z" id="Path"></path>
            <path d="M89.16,305.65 C89.77,306.07 90.46,306.28 91.15,306.28 C92.26,306.28 93.35,305.75 94.03,304.77 C95.13,303.18 94.73,301 93.14,299.9 C91.55,298.8 89.37,299.19 88.27,300.78 C87.17,302.37 87.57,304.55 89.16,305.65 Z" id="Path"></path>
            <path d="M173.31,190.19 C174.41,188.6 174.01,186.42 172.42,185.32 C170.83,184.22 168.65,184.61 167.55,186.2 C166.45,187.79 166.85,189.97 168.44,191.07 C169.05,191.49 169.74,191.7 170.43,191.7 C171.54,191.7 172.63,191.17 173.31,190.19 Z" id="Path"></path>
            <path d="M157.64,200.53 C156.54,202.12 156.94,204.3 158.53,205.39 C159.13,205.82 159.83,206.02 160.52,206.02 C161.63,206.02 162.72,205.49 163.4,204.51 C164.5,202.92 164.1,200.74 162.51,199.64 C160.92,198.54 158.74,198.94 157.64,200.53 Z" id="Path"></path>
            <path d="M79.25,319.98 C79.86,320.4 80.55,320.6 81.24,320.6 C82.35,320.6 83.44,320.07 84.12,319.09 C85.22,317.5 84.82,315.32 83.23,314.22 C81.64,313.12 79.46,313.52 78.36,315.11 C77.26,316.7 77.66,318.88 79.25,319.98 Z" id="Path"></path>
            <path d="M147.73,214.85 C146.63,216.44 147.03,218.62 148.62,219.72 C149.22,220.14 149.92,220.34 150.61,220.34 C151.72,220.34 152.81,219.81 153.49,218.83 C154.59,217.24 154.19,215.06 152.6,213.96 C151.01,212.86 148.83,213.26 147.73,214.85 Z" id="Path"></path>
            <path d="M142.69,228.28 C141.1,227.18 138.92,227.58 137.82,229.17 C136.72,230.76 137.12,232.94 138.71,234.04 C139.31,234.46 140.01,234.66 140.7,234.66 C141.81,234.66 142.9,234.14 143.58,233.15 C144.68,231.56 144.28,229.38 142.69,228.28 Z" id="Path"></path>
            <path d="M63.41,342.86 C61.82,341.76 59.64,342.16 58.54,343.75 C57.44,345.34 57.84,347.52 59.43,348.62 C60.04,349.04 60.73,349.24 61.42,349.24 C62.53,349.24 63.62,348.72 64.3,347.73 C65.4,346.14 65,343.96 63.41,342.86 Z" id="Path"></path>
            <path d="M444.29,206.01 C443.89,202.98 442.34,200.76 438.86,200.17 C437.7,199.97 436.53,199.96 435.1,199.94 C432.49,200.05 429.71,199.62 427.02,198.5 C424.34,197.38 421.73,196.14 419.34,194.46 C418.78,194.07 418.6,193.62 418.66,192.94 C418.86,190.72 418.54,188.55 417.87,186.43 C417.71,185.93 417.49,185.46 417.19,185.04 C415.5,182.74 413.5,180.82 410.89,179.63 C409.14,178.83 407.35,178.16 405.49,177.7 C404.96,177.57 404.6,177.37 404.35,176.84 C403.73,175.5 402.74,174.49 401.52,173.72 C401.06,173.43 400.59,173.13 400.16,172.79 C399.06,171.92 398.3,170.38 399.15,168.63 C399.57,167.76 400.14,167 400.74,166.26 C401.51,165.3 402.28,164.33 402.79,163.19 C403.79,160.93 404.49,158.59 403.61,156.11 C403.22,155.02 403.3,154.06 403.68,152.99 C405.13,148.97 404.82,145.11 402.45,141.53 C400.4,138.44 397.7,136.26 394.09,135.41 C393.54,135.28 393.08,135.06 392.66,134.67 C390.98,133.09 388.96,132.21 386.76,131.66 C382.27,130.53 378.18,131.29 374.51,134.22 C374.2,134.47 373.87,134.68 373.55,134.91 C372.34,135.8 370.99,136.2 369.5,136.28 C367.99,136.36 366.76,135.85 365.72,134.75 C364.93,133.91 364.22,133.01 363.6,132.04 C362.89,130.93 362.09,129.89 361.06,129.07 C357.75,126.44 354.03,125.57 349.94,126.41 C349.46,126.51 349.09,126.54 348.66,126.18 C346.05,124 343.01,123.31 339.76,123.79 C334.94,124.5 330.95,126.79 327.83,130.69 C325.13,134.07 323.49,137.84 322.94,142.09 C321.88,128.99 316.7,116.39 308.25,105.9 C315.83,105.94 323.41,105.98 330.98,106.02 C352.19,106.13 373.4,106.25 394.62,106.36 C395.14,106.36 395.64,106.4 396.16,106.51 C397.11,106.71 398.17,106.63 398.94,106.1 C400.42,105.09 401.07,103.86 400.5,102.05 C399.92,100.19 398.81,98.67 396.8,98.09 C396.17,97.91 395.84,97.52 395.51,96.97 C393.98,94.4 392.14,92.12 389.58,90.45 C384.16,86.91 378.33,85.51 371.95,86.93 C371.18,87.1 370.68,86.94 370.1,86.48 C367.57,84.45 364.68,83.08 361.61,82.09 C359.9,81.54 358.15,81.45 356.38,81.7 C354.14,82.01 352.34,83.18 350.8,84.77 C350.07,85.52 349.39,86.3 348.66,87.05 C346.56,89.21 341.04,88.95 339.91,85.03 C339.83,84.76 339.75,84.49 339.65,84.23 C338.04,79.66 334.97,76.64 330.19,75.56 C329.32,75.36 328.91,74.99 328.72,74.13 C327.95,70.74 326,68.11 323.33,65.96 C321.51,64.5 319.57,63.25 317.53,62.11 C313.63,59.91 309.52,59.5 305.2,60.34 C304.85,60.41 304.49,60.5 304.13,60.5 C303.81,60.5 303.59,60.34 303.79,59.96 C304.03,59.5 304.26,59.03 304.5,58.57 C305.18,57.25 305.89,55.95 306.55,54.62 C307.23,53.24 307.72,51.78 307.69,50.24 C307.64,47.58 307.2,44.97 306.3,42.47 C304.78,38.24 302.37,34.51 299.68,30.94 C298.22,29 296.47,27.35 294.36,26.13 C290.58,23.96 286.5,23.41 282.27,24.21 C277.61,25.1 273.28,26.87 269.48,29.75 C268.82,30.25 268.27,30.33 267.51,30.11 C266.58,29.84 265.73,29.39 264.82,29.07 C262.33,28.2 259.76,28.28 257.2,28.44 C252.19,28.74 247.88,30.64 244.39,34.28 C242.55,36.2 241.33,38.46 240.92,41.14 C240.74,42.3 240.84,43.46 240.69,44.61 C240.57,45.51 240.49,45.66 239.65,45.8 C238.42,46 237.22,46.36 236.11,46.93 C233.34,48.35 231.62,50.48 231.6,53.75 C231.59,54.75 231.52,55.75 231.37,56.75 C231.17,58.11 230.63,59.28 229.63,60.23 C228.3,61.5 226.77,62.43 224.96,62.83 C222.73,63.32 220.49,63.15 218.26,62.92 C216.55,62.74 214.84,62.45 213.12,62.79 C211.26,63.16 209.44,63.61 207.86,64.73 C205.88,66.13 204.71,68.11 203.93,70.35 C203.66,71.14 203.47,71.97 203.3,72.79 C203.17,73.41 202.86,73.64 202.23,73.67 C201.11,73.73 200,73.88 198.94,74.3 C196.14,75.4 193.84,77.12 192.15,79.64 C191.03,81.32 190.2,83.13 189.5,85.02 C188.86,86.74 187.73,88.06 186.03,88.83 C185.16,89.23 184.25,89.57 183.38,89.96 C181.72,90.72 180.22,91.71 179.12,93.2 C178.88,93.52 178.75,93.84 178.7,94.14 C139.9,88.86 108.85,94.18 101.83,108.68 C95.59,121.57 105.43,139.29 129.75,159.84 C128.04,161.02 125.59,163.46 124.8,164.74 C123.93,166.13 123.16,167.59 122.14,168.89 C121.71,169.43 121.22,169.89 120.6,170.2 C119.29,170.86 118.59,170.73 117.68,169.56 C116.79,168.42 116.03,167.2 115.41,165.88 C114.76,164.48 113.84,163.27 112.71,162.23 C110.85,160.5 108.66,160.04 106.24,160.71 C105.71,160.86 105.29,160.84 104.77,160.59 C102.22,159.38 99.54,158.86 96.71,159.29 C95.14,159.53 93.69,160.1 92.28,160.77 C88.49,162.57 85.46,165.1 84.17,169.3 C83.72,170.78 83.52,172.27 83.57,173.72 C83.53,174.6 83.61,175.4 83.5,176.2 C83.38,177.05 83.02,177.49 82.08,177.67 C79.56,178.15 77.6,179.47 76.19,181.51 C76.2,180.35 76.23,179.19 76.27,178.02 C79.42,88.52 149,15.38 238.1,7.88 C239.93,7.73 241.33,6.18 241.31,4.35 C241.29,2.51 239.85,1.01 238.02,0.9 C236.42,0.81 234.82,0.73 233.22,0.67 C179.73,-1.22 128.7,17.84 89.55,54.34 C50.4,90.84 27.79,140.39 25.9,193.88 C25.84,195.67 25.81,197.45 25.8,199.22 C25.69,199.22 25.58,199.22 25.47,199.22 C24.91,199.2 24.33,199.24 23.79,199.12 C20.92,198.45 18.04,198.78 15.18,199.1 C11.86,199.47 8.67,200.4 5.6,201.76 C4.87,202.09 4.12,202.37 3.45,202.83 C2.45,203.52 1.53,204.27 1.04,205.44 C0.58,206.53 0.88,207.32 1.97,207.75 C2.27,207.87 2.58,207.93 2.84,208.14 C3.9,208.98 5.13,209.23 6.46,209.16 C7.55,209.1 8.63,209.19 9.66,209.56 C11.07,210.06 12.52,210.3 13.98,210.57 C14.8,210.72 15.67,210.73 16.45,211 C17.12,211.23 17.76,211.33 18.44,211.29 C19.8,211.22 20.99,211.03 22.36,211.03 C23.58,211.03 24.8,211.03 26.03,211.04 C28.12,253.99 43.79,294.63 71.15,327.94 C70.09,327.98 69.06,328.49 68.41,329.44 C67.31,331.03 67.71,333.21 69.3,334.31 C69.91,334.73 70.6,334.93 71.29,334.93 C72.4,334.93 73.49,334.4 74.17,333.42 C74.44,333.03 74.62,332.59 74.71,332.15 C76.29,333.97 77.9,335.78 79.56,337.56 C116.05,376.72 165.61,399.32 219.1,401.2 C221.5,401.28 223.91,401.33 226.3,401.33 C264.97,401.33 302.35,390.32 334.84,369.3 C368.56,347.49 394.7,316.52 410.44,279.74 C411.16,278.05 410.46,276.1 408.83,275.25 C407.2,274.41 405.2,274.97 404.24,276.53 C370.92,330.97 310.65,363.39 246.93,361.15 C160.55,358.11 90.65,293.33 78.16,210.81 C79.2,210.81 80.24,210.8 81.27,210.8 C86.68,210.79 92.09,210.8 97.5,210.8 C99.3,210.8 101.11,210.79 102.91,210.78 C106.68,210.75 110.44,210.71 114.21,210.7 C118.1,210.69 114.99,210.71 118.87,210.7 C122.56,210.69 126.24,210.63 129.93,210.62 C133.74,210.61 137.54,210.63 141.35,210.63 C142.75,210.63 144.16,210.64 145.56,210.6 C146.45,210.58 147.1,209.9 147.12,209.09 C147.13,208.31 146.57,207.66 145.73,207.54 C145.26,207.48 144.77,207.5 144.29,207.5 C141.76,207.51 139.24,207.54 136.71,207.55 C133.1,207.56 129.49,207.55 125.89,207.56 C120.44,207.58 121.99,207.63 116.54,207.65 C112.81,207.66 109.08,207.64 105.36,207.65 C98.55,207.68 91.73,207.73 84.92,207.77 C78.91,207.8 72.9,207.81 66.88,207.83 C60.67,207.85 54.45,207.88 48.24,207.89 C42.79,207.9 27.8,207.97 25.75,207.96 C23.03,207.94 20.32,208.18 17.59,207.92 C15.47,207.71 13.35,207.46 11.33,206.83 C9.77,206.34 8.22,206.11 6.6,206.12 C6.03,206.12 5.15,206.3 5.03,205.68 C4.93,205.18 5.83,205.04 6.31,204.81 C9.87,203.16 13.63,202.23 17.54,201.95 C19.01,201.84 20.51,201.66 21.98,201.95 C23.21,202.2 24.44,202.23 25.69,202.28 C26.77,202.32 27.85,202.37 28.93,202.44 C32.14,202.66 35.02,201.75 37.63,199.93 C38.85,199.08 39.92,198.04 40.98,197 C43.61,194.42 46.75,192.82 50.39,192.31 C52.7,191.99 54.67,191.03 56.39,189.51 C57.15,188.84 57.99,188.31 58.92,187.91 C60.43,187.25 61.93,186.59 63.43,185.92 C64.91,185.25 66.44,185.16 68.01,185.53 C69.04,185.77 69.96,186.24 70.88,186.74 C71.87,187.28 72.89,187.71 74.04,187.78 C75.32,187.87 76.33,187.48 76.97,186.33 C77.44,185.49 77.86,184.62 78.34,183.79 C79.29,182.14 80.7,181.1 82.58,180.7 C82.85,180.64 83.12,180.56 83.4,180.51 C84.65,180.28 85.47,179.52 85.99,178.4 C86.37,177.59 86.5,176.72 86.52,175.83 C86.54,174.95 86.49,174.06 86.54,173.18 C86.74,169.79 88.05,166.99 90.95,165.06 C92.19,164.23 93.5,163.55 94.87,162.98 C97.89,161.73 100.84,162.01 103.68,163.49 C104.72,164.03 105.65,164.23 106.75,163.77 C108.5,163.03 109.96,163.65 111.17,164.97 C111.88,165.74 112.43,166.63 112.88,167.57 C113.58,169.02 114.47,170.34 115.43,171.63 C117.22,174.02 119.94,173.98 121.99,172.93 C123.28,172.26 124.23,171.25 125.02,170.07 C125.78,168.94 126.44,167.74 127.21,166.62 C128.03,165.4 130.63,162.45 132.49,162.1 C140.34,168.52 149.56,175.21 160.13,182.1 C161.98,183.31 164.46,182.79 165.67,180.94 C166.88,179.09 166.36,176.61 164.51,175.4 C120.82,146.9 106.82,126.3 108.14,115.27 C112.68,113.88 125.76,114.54 150.65,121.3 C180.1,129.3 214.73,142.61 248.16,158.78 C257.17,163.14 266.06,167.7 274.74,172.38 C273.74,172.37 272.73,172.47 271.7,172.7 C269.82,173.12 268.04,173.82 266.3,174.63 C265.62,174.95 265.06,174.89 264.47,174.44 C263.5,173.7 262.46,173.07 261.35,172.55 C257.82,170.88 254.14,169.87 250.24,169.47 C244.89,168.92 238.19,171.23 234.25,175.18 C233.35,174.68 232.45,174.19 231.54,173.71 C213.41,164.2 195.39,160.65 186.69,164.89 C185.94,165.25 185.63,166.15 186,166.89 C186.36,167.64 187.26,167.94 188,167.58 C195.76,163.81 213.09,167.42 230.14,176.36 C230.71,176.66 231.28,176.97 231.85,177.28 C231.81,177.27 231.78,177.27 231.74,177.26 C230.84,177 229.93,176.79 228.98,176.93 C226.89,177.23 225.01,178.03 223.31,179.31 C221.6,180.6 220.16,182.18 218.82,183.86 C218.13,184.72 217.28,185.32 216.3,185.75 C215.73,186 215.14,186.23 214.56,186.45 C211.32,187.68 208.25,189.22 205.76,191.77 C205.18,192.36 204.57,192.93 203.96,193.49 C203.03,194.35 202.04,195.13 200.92,195.72 C200.07,196.16 199.21,196.2 198.32,195.87 C197.57,195.59 196.95,195.13 196.33,194.63 C193.53,192.38 190.4,191.7 186.97,192.64 C184.72,193.26 182.68,194.31 180.88,195.85 C180.04,196.57 179.17,197.31 178.05,197.47 C175.91,197.79 174.08,198.85 172.25,199.93 C171.3,200.49 170.47,201.24 169.74,202.08 C168.87,203.08 168.33,204.2 168.97,205.58 C169.06,205.79 169.06,206.05 169.08,206.28 C169.27,208.34 169.97,209.15 171.91,209.74 C173.61,210.25 175.77,210.51 177.52,210.52 C179.45,210.53 184.59,210.58 186.19,210.58 C228.11,210.52 270.03,210.59 311.95,210.39 C319.91,210.35 327.87,210.35 335.83,210.35 C336.58,210.89 337.33,211.44 338.06,211.98 C358.76,227.26 367.41,237.1 369.17,241.54 C359.96,250.7 327.87,250.45 272.4,229.71 C270.33,228.94 268.03,229.99 267.25,232.06 C266.48,234.13 267.53,236.43 269.6,237.21 C301.66,249.2 328.31,255.24 347.41,255.24 C363.43,255.24 374.15,250.98 378.29,242.41 C382,234.73 379.5,223.35 372.14,210.32 C391.34,210.3 410.55,210.28 429.75,210.27 C430.1,210.27 439.11,209.99 441.12,209.8 C442.18,209.69 443.21,209.36 443.52,208.06 C443.56,207.88 443.71,207.71 443.84,207.57 C444.3,207.13 444.36,206.58 444.29,206.01 Z M51.86,210.96 C57.11,210.94 62.36,210.88 67.61,210.85 C68.78,210.84 69.95,210.84 71.12,210.84 C75.07,237.97 84.99,263.27 99.53,285.32 C99.01,285.57 98.54,285.95 98.18,286.46 C97.08,288.05 97.48,290.23 99.07,291.33 C99.68,291.75 100.37,291.95 101.06,291.95 C101.93,291.95 102.77,291.62 103.43,291.01 C130.23,328.52 170.8,355.69 217.98,364.87 C218.14,366.24 219.09,367.44 220.5,367.84 C220.82,367.93 221.15,367.98 221.46,367.98 C222.78,367.98 224,367.22 224.6,366.02 C231.84,367.15 239.23,367.88 246.73,368.14 C297.33,369.93 345.84,350.67 381.37,316.25 C343.93,366.26 283.32,396.47 219.39,394.2 C217.34,394.13 215.31,394.01 213.28,393.88 C213.23,393.86 213.19,393.84 213.14,393.82 C212.61,393.67 212.08,393.66 211.57,393.75 C162.96,390.11 118.17,368.64 84.74,332.77 C53.38,299.12 35.38,256.4 33.09,210.99 C35.5,210.97 37.92,210.94 40.33,210.94 C44.16,210.94 48.01,210.97 51.86,210.96 Z M63.45,182.67 C61.05,183.43 58.77,184.55 56.53,185.7 C55.86,186.04 55.21,186.49 54.66,187 C53.19,188.38 51.45,189.06 49.5,189.35 C45.92,189.89 42.77,191.39 40.05,193.77 C39.18,194.54 38.34,195.34 37.47,196.12 C36.39,197.08 35.31,198.05 33.91,198.52 C33.55,198.64 33.2,198.76 32.84,198.87 C32.85,197.29 32.88,195.7 32.93,194.12 C34.75,142.5 56.56,94.67 94.35,59.45 C122.15,33.54 156.15,16.74 192.74,10.39 C122.53,34.77 72.04,100.39 69.31,177.77 C69.25,179.4 69.23,181.02 69.22,182.64 C67.34,182.1 65.39,182.05 63.45,182.67 Z M314.26,156.7 C298.87,145.3 281.83,134.95 263.92,126.28 C246.01,117.61 227.32,110.67 208.83,105.68 C225.76,86.38 254.89,81.32 279.84,93.38 C304.77,105.45 318.89,131.45 314.26,156.7 Z M183.58,93.32 C184.33,92.85 185.16,92.54 185.99,92.23 C188.4,91.32 190.34,89.86 191.65,87.61 C192.2,86.67 192.49,85.62 192.92,84.63 C194.81,80.16 197.74,77.01 202.94,76.7 C204.68,76.59 205.69,75.53 206.14,73.91 C206.34,73.18 206.45,72.42 206.68,71.69 C207.3,69.78 208.2,68 210.03,67.02 C212,65.96 214.15,65.45 216.41,65.78 C218.48,66.09 220.55,66.2 222.64,66.2 C224.52,66.2 226.31,65.83 227.99,65.02 C231.56,63.3 234.05,60.72 234.44,56.56 C234.54,55.52 234.57,54.48 234.63,53.44 C234.71,52.05 235.4,51.05 236.52,50.25 C237.6,49.49 238.82,49.14 240.07,48.86 C241.02,48.65 241.99,48.52 242.35,47.39 C242.39,47.27 242.58,47.18 242.72,47.1 C243.37,46.76 243.57,46.16 243.62,45.5 C243.68,44.74 243.7,43.98 243.73,43.22 C243.82,40.72 244.67,38.55 246.34,36.66 C248.06,34.72 250.2,33.44 252.58,32.5 C254.63,31.69 256.77,31.53 258.94,31.44 C261.15,31.35 263.25,31.63 265.26,32.56 C265.8,32.81 266.4,32.94 266.96,33.15 C268.49,33.71 269.78,33.39 271.09,32.39 C274.79,29.56 278.99,27.83 283.59,27.15 C289.05,26.34 293.51,28.2 297,32.44 C298.46,34.21 299.66,36.15 300.86,38.1 C302.88,41.39 304.21,44.9 304.63,48.77 C304.78,50.18 304.6,51.48 304.07,52.75 C303.73,53.56 303.31,54.34 302.92,55.13 C302.28,56.42 301.52,57.65 300.9,58.96 C300.24,60.36 300.19,61.6 301.24,62.86 C301.75,63.47 302.25,63.81 303.05,63.79 C304.18,63.75 305.26,63.43 306.36,63.26 C309.48,62.78 312.5,62.98 315.37,64.47 C317.48,65.56 319.47,66.82 321.33,68.29 C323.71,70.17 325.34,72.52 325.96,75.52 C326.06,75.99 326.18,76.46 326.36,76.9 C326.78,77.91 327.5,78.48 328.66,78.51 C330.49,78.56 332.09,79.29 333.49,80.42 C335.15,81.76 336.3,83.47 336.87,85.56 C337.5,87.9 338.91,89.56 341.1,90.67 C342.77,91.51 344.49,91.61 346.25,91.4 C348.04,91.19 349.65,90.49 350.9,89.11 C351.55,88.4 352.21,87.7 352.87,87 C353.95,85.88 355.19,84.97 356.76,84.76 C358.11,84.58 359.47,84.62 360.8,85.06 C363.67,86.03 366.36,87.33 368.71,89.27 C369.71,90.09 370.75,90.45 372.05,90.05 C372.89,89.79 373.76,89.6 374.63,89.54 C378.2,89.3 381.65,89.77 384.93,91.34 C388.32,92.96 391.15,95.18 392.88,98.56 C393.54,99.85 394.36,100.7 395.76,101 C396.48,101.16 396.93,101.66 397.28,102.27 C397.75,103.08 397.7,103.2 396.8,103.24 C396.28,103.26 395.76,103.25 395.24,103.25 C380.68,103.24 366.13,103.14 352.47,103 C336.65,103.04 321.74,102.88 306.82,102.78 C306.42,102.78 306.01,102.75 305.62,102.83 C305.62,102.83 305.61,102.83 305.61,102.84 C299.52,96.1 292.01,90.39 283.32,86.18 C255.8,72.87 223.64,78.14 204.18,98.89 C196.61,97.09 189.18,95.67 182,94.59 C182.48,94.12 183,93.69 183.58,93.32 Z M170.22,101.17 C197.27,104.4 229.95,113.18 262.61,128.98 C281.15,137.95 297.91,148.33 312.48,159.13 C311.82,160.11 311.36,161.22 311.08,162.46 C310.84,163.53 310.95,164.62 310.74,165.68 C310.62,166.28 310.53,166.89 310.11,167.34 C308.38,169.17 306.41,169.99 303.94,168.44 C302.94,167.81 302.04,167.05 301.26,166.13 C298.85,163.25 295.75,162.19 292.14,162.66 C290.44,162.88 288.59,163.52 286.89,164.53 C276.21,158.44 265.14,152.57 253.83,147.11 C194.46,118.39 136.89,103.79 114.71,106.71 C124.46,101.06 144.59,98.55 170.22,101.17 Z M249.49,156.11 C191.53,128.07 128.17,108.76 109.08,112.13 C109.26,111.76 109.47,111.39 109.71,111.04 C120.29,104.69 181.06,115.23 252.54,149.81 C263.4,155.06 274.04,160.68 284.32,166.52 C282.73,168.08 281.52,170.09 281.08,172.52 C270.83,166.84 260.23,161.3 249.49,156.11 Z M371.13,238.9 C367.43,232.05 356.45,221.89 340.89,210.36 C343.39,210.36 345.89,210.36 348.38,210.35 C363.83,223.61 370.92,233.19 371.56,237.81 C371.43,238.19 371.29,238.56 371.13,238.9 Z M352.93,210.35 C356.26,210.35 359.59,210.34 362.91,210.34 C367.95,218.3 370.98,225.36 371.83,230.91 C367.8,224.3 359.98,216.59 352.93,210.35 Z M440.83,206.72 C440.25,206.8 439.67,206.91 439.09,206.93 C435.43,207.09 431.77,207.19 428.1,207.19 C407.15,207.19 386.2,207.22 365.25,207.23 C364.55,207.23 363.86,207.23 363.16,207.23 C362.4,207.23 361.64,207.23 360.89,207.23 C356.25,207.23 351.62,207.23 346.98,207.23 C346.21,207.23 345.44,207.23 344.68,207.23 C331.69,207.23 318.71,207.23 305.72,207.23 C305.72,207.31 305.72,207.38 305.72,207.46 C276.74,207.46 247.77,207.45 218.79,207.47 C204.71,207.48 190.63,207.55 176.56,207.58 C175.39,207.58 174.23,207.44 173.09,207.13 C172.48,206.96 172,206.7 171.98,205.94 C171.98,205.75 171.91,205.54 171.82,205.37 C171.48,204.75 171.74,204.33 172.18,203.9 C173.81,202.32 175.71,201.2 177.86,200.72 C179.76,200.29 181.36,199.44 182.82,198.19 C184.28,196.94 185.96,196.11 187.8,195.62 C189.85,195.08 191.82,195.24 193.63,196.46 C194.15,196.81 194.66,197.19 195.16,197.56 C197.65,199.41 200.37,199.85 203.2,197.92 C203.91,197.43 204.6,196.9 205.27,196.35 C205.76,195.95 206.23,195.53 206.66,195.07 C209.15,192.42 212.13,190.59 215.5,189.39 C216.05,189.19 216.59,188.97 217.14,188.75 C218.65,188.13 219.97,187.24 221.01,185.94 C222.15,184.52 223.34,183.14 224.79,182.02 C225.64,181.36 226.54,180.83 227.54,180.46 C228.91,179.95 230.24,179.87 231.63,180.48 C233.12,181.13 233.7,180.91 234.59,179.55 C234.71,179.37 234.84,179.21 234.96,179.03 C235.24,178.64 235.54,178.27 235.84,177.93 C235.85,177.92 235.86,177.91 235.87,177.9 C236.18,177.55 236.51,177.22 236.85,176.92 L236.85,176.92 C238.41,175.52 240.24,174.51 242.25,173.72 C246.72,171.96 251.19,172.31 255.67,173.65 C258.15,174.39 260.5,175.43 262.67,176.91 C264.97,178.48 265.15,178.5 267.73,177.38 C269.6,176.57 271.48,175.82 273.51,175.55 C275.68,175.26 277.69,175.82 279.59,176.84 C280.21,177.18 280.57,177.86 281.06,178.38 C281.78,179.15 282.63,179.19 283.34,178.54 C283.76,178.15 283.85,177.66 283.81,177.12 C283.74,176.16 283.68,175.2 283.76,174.24 C283.93,172.2 284.68,170.45 286.1,169.01 C286.42,168.68 286.75,168.39 287.1,168.11 C288.02,167.36 289.01,166.77 290.07,166.36 C291.01,165.99 292.01,165.75 293.06,165.66 C295.27,165.46 297.31,166.17 298.84,167.96 C299.77,169.05 300.8,170.01 301.97,170.83 C303.41,171.84 305.02,172.42 306.66,172.94 C307.48,173.2 308.21,173.07 308.71,172.27 C308.91,171.95 309.21,171.78 309.52,171.6 C310.13,171.25 310.71,170.84 311.27,170.41 C312.88,169.15 313.6,167.45 313.69,165.43 C313.73,164.63 313.76,163.83 313.95,163.05 C314.14,162.27 314.43,161.56 314.84,160.94 C314.94,160.79 315.04,160.66 315.16,160.52 C315.33,160.32 315.53,160.13 315.73,159.96 C315.77,159.92 315.82,159.89 315.86,159.86 C316.08,159.69 316.31,159.53 316.56,159.4 C317.18,159.08 317.63,158.64 317.76,157.88 C318.04,156.26 319.05,155.17 320.37,154.38 C320.61,154.23 320.86,154.11 321.12,153.99 C321.21,153.95 321.31,153.91 321.4,153.87 C321.55,153.8 321.71,153.75 321.87,153.69 C322.17,153.58 322.48,153.48 322.79,153.4 C323.19,153.29 323.6,153.19 324,153.1 C324.08,153.08 324.16,153.09 324.23,153.08 C326.19,152.77 326.74,151.91 326.29,149.9 C326.06,148.89 325.75,147.87 325.68,146.84 C325.21,139.79 327.68,134.02 333.13,129.74 C335.79,127.65 338.9,126.6 342.32,126.84 C344.09,126.96 345.69,127.59 346.98,128.82 C347.93,129.72 348.87,129.88 350.08,129.57 C353.24,128.75 356.18,129.35 358.86,131.26 C359.81,131.93 360.5,132.85 361.12,133.83 C361.82,134.94 362.66,135.95 363.54,136.91 C365.53,139.1 367.99,139.71 370.79,139.29 C372.53,139.03 374.07,138.31 375.48,137.25 C376.3,136.64 377.11,136.01 378,135.51 C380.9,133.87 383.9,134.06 386.96,134.95 C388.54,135.41 389.89,136.25 391.08,137.37 C391.68,137.94 392.37,138.24 393.15,138.4 C396.28,139.06 398.54,140.97 400.21,143.69 C401.02,145 401.47,146.44 401.59,147.98 C401.66,148.83 401.46,149.66 401.29,150.47 C401.14,151.17 400.95,151.88 400.67,152.53 C400.13,153.82 400.07,155.12 400.57,156.39 C401.41,158.55 400.82,160.47 399.81,162.35 C399.34,163.23 398.67,163.97 398.06,164.75 C397.45,165.54 396.92,166.37 396.47,167.27 C395.03,170.17 395.96,173.53 398.57,175.46 C398.76,175.6 398.95,175.75 399.15,175.86 C400.54,176.62 401.58,177.69 402.18,179.22 C402.47,179.97 403.09,180.37 403.88,180.53 C405.8,180.91 407.63,181.58 409.43,182.37 C411.11,183.12 412.48,184.26 413.77,185.57 C415.15,186.97 415.55,188.73 415.68,190.59 C415.75,191.55 415.72,192.51 415.69,193.47 C415.65,194.83 416.19,195.87 417.22,196.68 C419.25,198.26 421.51,199.44 423.83,200.5 C425.15,201.1 426.5,201.63 427.86,202.1 C429.87,202.8 431.98,202.95 434.09,203 C435.3,203.03 436.51,203.07 437.71,203.12 C438.46,203.15 439.16,203.36 439.83,203.72 C440.75,204.22 441.1,205.08 441.26,206.07 C441.37,206.47 441.21,206.67 440.83,206.72 Z" id="Shape"></path>
        </g>
    </g>
</svg>